<svg width="954" height="122" viewBox="0 0 954 122" fill="none" xmlns="http://www.w3.org/2000/svg">
<g opacity="0.3">
<path d="M60 86.7152C26.3478 86.7152 0 75.2369 0 60.6282C0 46.0195 26.3478 34.5413 60 34.5413C93.6522 34.5413 120 46.0195 120 60.6282C120 75.2369 93.6522 86.7152 60 86.7152ZM60 39.7587C27.1304 39.7587 5.21739 50.4543 5.21739 60.6282C5.21739 70.8021 27.1304 81.4978 60 81.4978C92.8696 81.4978 114.783 70.8021 114.783 60.6282C114.783 50.4543 92.8696 39.7587 60 39.7587Z" fill="#80DEEA"/>
<path d="M36.7828 114.367C34.1741 114.367 32.0872 113.845 30.0002 112.541C17.2176 105.237 20.6089 76.802 37.3046 47.5846C45.1306 34.0194 54.7828 22.5411 64.1741 15.2368C74.348 7.41067 83.4785 5.06285 89.7393 8.71502C96.2611 12.3672 98.6089 21.4976 97.0437 34.2802C95.4785 46.2802 90.2611 60.3672 82.435 73.9324C74.6089 87.4976 64.9567 98.9759 55.5654 106.28C48.7828 111.498 42.2611 114.367 36.7828 114.367ZM83.2176 12.1063C79.0437 12.1063 73.5654 14.4542 67.5654 19.1498C58.6959 26.1933 49.5654 37.1498 42.0002 50.1933C25.5654 78.6281 24.0002 103.15 32.6089 108.106C37.0437 110.715 44.348 108.367 52.435 102.106C61.3046 95.0629 70.435 84.1063 78.0002 71.0628C85.5654 58.0194 90.5219 44.715 92.0872 33.4976C93.3915 23.0628 91.8263 15.7585 87.3915 13.1498C86.0872 12.6281 84.7828 12.1063 83.2176 12.1063Z" fill="#80DEEA"/>
<path d="M83.4781 114.367C70.4347 114.367 51.6521 98.4541 37.5651 73.6715C20.6086 44.4541 17.2173 16.0193 29.9999 8.715C42.7825 1.41065 65.739 18.3672 82.6955 47.5846C90.5216 61.1498 95.739 75.2367 97.3042 87.2367C99.1303 100.019 96.5216 108.889 89.9999 112.802C87.9129 113.845 85.826 114.367 83.4781 114.367ZM32.6086 13.1498C23.9999 18.1063 25.5651 42.628 41.9999 71.0628C58.4347 99.4976 78.7825 113.063 87.3912 108.106C91.826 105.498 93.3912 98.1933 92.0868 87.7585C90.5216 76.5411 85.5651 63.2367 77.9999 50.1933C61.5651 21.7585 41.2173 8.19326 32.6086 13.1498Z" fill="#80DEEA"/>
<path d="M60.0002 71.0629C65.7632 71.0629 70.435 66.3911 70.435 60.6281C70.435 54.8652 65.7632 50.1934 60.0002 50.1934C54.2372 50.1934 49.5654 54.8652 49.5654 60.6281C49.5654 66.3911 54.2372 71.0629 60.0002 71.0629Z" fill="#80DEEA"/>
</g>
<g opacity="0.3">
<circle cx="199" cy="60.6948" r="12" fill="black"/>
<circle cx="199" cy="60.6948" r="15.5" stroke="black"/>
<line x1="128" y1="59.1948" x2="178" y2="59.1948" stroke="black" stroke-width="3" stroke-dasharray="10 10"/>
<line x1="220" y1="59.1948" x2="270" y2="59.1948" stroke="black" stroke-width="3" stroke-dasharray="10 10"/>
</g>
<g opacity="0.3">
<path d="M337.967 43.1948L324.835 20.6948H285.435L337.967 110.695L390.5 20.6948H351.1L337.967 43.1948Z" fill="#81C784"/>
<path d="M351.1 20.6948L337.968 43.1948L324.835 20.6948H305.865L337.968 75.6948L370.07 20.6948H351.1Z" fill="#455A64"/>
</g>
<g opacity="0.3">
<circle cx="477" cy="60.6948" r="12" fill="black"/>
<circle cx="477" cy="60.6948" r="15.5" stroke="black"/>
<line x1="406" y1="59.1948" x2="456" y2="59.1948" stroke="black" stroke-width="3" stroke-dasharray="10 10"/>
<line x1="498" y1="59.1948" x2="548" y2="59.1948" stroke="black" stroke-width="3" stroke-dasharray="10 10"/>
</g>
<g opacity="0.3">
<path d="M621 10.6948L571 60.6948L586 75.6948L651 10.6948H621Z" fill="#40C4FF"/>
<path d="M651 55.6948L623.5 83.1948L608.5 68.1948L621 55.6948H651Z" fill="#40C4FF"/>
<path d="M608.498 68.1953L593.499 83.1951L608.499 98.1943L623.498 83.1945L608.498 68.1953Z" fill="#03A9F4"/>
<path d="M651 110.695H621L608.5 98.1948L623.5 83.1948L651 110.695Z" fill="#01579B"/>
<path d="M608.5 98.1948L631 90.6948L623.5 83.1948L608.5 98.1948Z" fill="#084994"/>
</g>
<g opacity="0.3">
<circle cx="755" cy="60.6948" r="12" fill="black"/>
<circle cx="755" cy="60.6948" r="15.5" stroke="black"/>
<line x1="684" y1="59.1948" x2="734" y2="59.1948" stroke="black" stroke-width="3" stroke-dasharray="10 10"/>
<line x1="776" y1="59.1948" x2="826" y2="59.1948" stroke="black" stroke-width="3" stroke-dasharray="10 10"/>
</g>
<path fill-rule="evenodd" clip-rule="evenodd" d="M894 107.93L937.464 121.323L916.329 101.676L865.002 53.9661L877.003 41.9664L871.478 3.86809L836.004 46.4884C833.332 51.1156 833.332 56.8166 836.004 61.4437L858.526 100.452C861.197 105.079 866.135 107.93 871.477 107.93L894 107.93Z" fill="#18B6F6"/>
<path d="M916.522 0L871.478 4.17766e-06C866.135 4.6732e-06 861.197 2.85051 858.526 7.47774L836.004 46.4884L871.478 3.86809L922.998 53.9661L913.399 63.5664L916.329 101.676L937.464 121.323C938.683 121.698 939.752 120.421 939.169 119.287L929.474 100.452L951.996 61.4437C954.668 56.8166 954.668 51.1156 951.996 46.4884L929.474 7.47773C926.803 2.8505 921.865 -4.9554e-07 916.522 0Z" fill="#AC7EF4"/>
<path d="M922.998 53.9661L871.478 3.86809L877.003 41.9664L865.002 53.9661L916.329 101.676L913.399 63.5664L922.998 53.9661Z" fill="white"/>
</svg>
