<svg width="96" height="96" viewBox="0 0 96 96" fill="none" xmlns="http://www.w3.org/2000/svg">
<path d="M48.0056 71.4533C60.9607 71.4533 71.4628 60.9512 71.4628 47.9961C71.4628 35.041 60.9607 24.5388 48.0056 24.5388C35.0505 24.5388 24.5483 35.041 24.5483 47.9961C24.5483 60.9512 35.0505 71.4533 48.0056 71.4533Z" fill="white"/>
<path d="M87.6165 20.8863C82.2651 13.0785 74.8152 7.07346 66.0736 3.51972C62.9556 2.25127 59.3993 3.75059 58.1308 6.87113C56.8624 9.99167 58.3617 13.5454 61.4823 14.8139C68.0035 17.4649 73.5624 21.9499 77.5623 27.7811C81.6504 33.7446 83.8111 40.7354 83.8111 47.9985C83.8111 67.7438 67.7467 83.8056 48.004 83.8056C43.2804 83.8056 38.6942 82.9029 34.3701 81.1209C31.2573 79.8394 27.6932 81.3206 26.4118 84.4334C25.1278 87.5461 26.6115 91.1102 29.7243 92.3916C35.5296 94.7833 41.6773 95.9973 48.0014 95.9973C74.4676 95.9973 96.0002 74.4647 96.0002 47.9985C96.0028 38.2633 93.1027 28.8861 87.6165 20.8863Z" fill="url(#paint0_linear_24_17)"/>
<path d="M32.0407 92.8555C31.2677 92.8555 30.4791 92.7077 29.7191 92.3938C21.0319 88.8141 13.6339 82.8065 8.32145 75.0194C2.8793 67.0378 0 57.6943 0 47.998C0 21.5318 21.5325 -0.000732422 47.9988 -0.000732422C54.2476 -0.000732422 60.3279 1.18471 66.0709 3.51928C69.1889 4.78773 70.6882 8.34406 69.4223 11.462C68.1539 14.58 64.5976 16.0793 61.4796 14.8134C57.2022 13.0729 52.6653 12.1909 47.9988 12.1909C28.2561 12.1909 12.1916 28.2554 12.1916 47.998C12.1916 62.5684 20.897 75.5693 34.3675 81.1204C37.4802 82.4044 38.964 85.9659 37.68 89.0787C36.7098 91.434 34.4375 92.8555 32.0407 92.8555Z" fill="url(#paint1_linear_24_17)"/>
<path d="M47.9854 96.0009C41.6613 96.0009 35.511 94.7869 29.7057 92.3952C26.593 91.1112 25.1092 87.5497 26.3932 84.437C27.6773 81.3242 31.2388 79.8404 34.3515 81.1245C38.6757 82.9065 43.2618 83.8092 47.9854 83.8092C67.7307 83.8092 83.7926 67.7448 83.7926 48.0021C83.7926 44.6351 86.5214 41.9062 89.8884 41.9062C93.2554 41.9062 95.9842 44.6351 95.9842 48.0021C95.9868 74.4683 74.4517 96.0009 47.9854 96.0009Z" fill="white"/>
<defs>
<linearGradient id="paint0_linear_24_17" x1="60.9749" y1="3.06885" x2="91.855" y2="39.7632" gradientUnits="userSpaceOnUse">
<stop stop-color="#B0B9FF" stop-opacity="0.25"/>
<stop offset="1" stop-color="white"/>
</linearGradient>
<linearGradient id="paint1_linear_24_17" x1="36.6208" y1="88.9706" x2="12.4674" y2="58.887" gradientUnits="userSpaceOnUse">
<stop stop-color="#BCC4FF" stop-opacity="0.3"/>
<stop offset="1" stop-color="white"/>
</linearGradient>
</defs>
</svg>
